<?xml version="1.0" standalone="no"?>
<!DOCTYPE svg PUBLIC "-//W3C//DTD SVG 20010904//EN"
 "http://www.w3.org/TR/2001/REC-SVG-20010904/DTD/svg10.dtd">
<svg version="1.0" xmlns="http://www.w3.org/2000/svg"
 width="1254.000000pt" height="1254.000000pt" viewBox="0 0 1254.000000 1254.000000"
 preserveAspectRatio="xMidYMid meet">

<g transform="translate(0.000000,1254.000000) scale(0.100000,-0.100000)"
fill="#000000" stroke="none">
<path d="M6005 12524 c-82 -7 -202 -18 -265 -24 -63 -6 -145 -15 -183 -20 -37
-6 -89 -10 -117 -10 -27 0 -61 -5 -75 -10 -15 -6 -61 -15 -103 -20 -146 -19
-205 -30 -327 -60 -140 -34 -172 -42 -200 -49 -16 -5 -48 -13 -70 -19 -125
-33 -178 -49 -350 -104 -104 -34 -197 -65 -205 -69 -8 -4 -26 -11 -40 -17 -14
-5 -38 -15 -55 -22 -16 -7 -66 -27 -110 -45 -173 -71 -441 -200 -612 -295
-203 -114 -320 -185 -513 -314 -235 -156 -301 -206 -645 -495 -114 -96 -457
-438 -555 -555 -181 -214 -227 -271 -352 -441 -168 -227 -345 -506 -476 -750
-83 -156 -215 -430 -256 -535 -21 -52 -44 -109 -52 -127 -39 -87 -155 -428
-191 -558 -13 -49 -28 -103 -33 -120 -8 -28 -30 -120 -64 -270 -8 -33 -19 -85
-25 -115 -5 -30 -15 -81 -21 -113 -40 -200 -70 -465 -92 -797 -15 -237 -15
-336 0 -600 16 -269 35 -458 71 -710 12 -79 73 -377 91 -445 5 -16 16 -57 25
-90 99 -364 227 -726 363 -1025 446 -984 1098 -1788 1991 -2454 600 -448 1245
-770 1983 -990 571 -170 1119 -249 1733 -249 311 0 474 10 755 44 1369 165
2655 787 3649 1764 248 244 394 410 598 680 112 149 295 420 390 580 440 739
739 1621 838 2480 26 224 39 718 27 1023 -15 356 -40 571 -107 906 -179 903
-555 1757 -1093 2486 -207 279 -373 472 -631 731 -387 387 -739 662 -1216 949
-243 147 -410 235 -635 334 -58 26 -114 51 -125 56 -183 81 -644 236 -865 290
-19 5 -62 15 -95 23 -33 9 -87 21 -120 27 -33 6 -87 17 -120 25 -33 7 -94 19
-135 25 -41 6 -95 16 -120 21 -57 11 -197 29 -320 39 -52 5 -149 13 -215 19
-368 34 -489 37 -730 15z m608 -334 c368 -19 715 -73 1114 -170 735 -181 1474
-532 2083 -991 683 -514 1203 -1098 1613 -1809 283 -492 497 -1042 632 -1625
42 -177 43 -184 69 -325 43 -228 62 -390 77 -650 12 -224 7 -733 -11 -895 -20
-197 -71 -525 -101 -655 -6 -25 -14 -63 -19 -85 -152 -673 -403 -1288 -760
-1860 -104 -167 -296 -438 -397 -560 -337 -409 -602 -672 -962 -953 -58 -45
-120 -93 -137 -105 -374 -263 -564 -380 -899 -548 -294 -148 -462 -217 -795
-327 -114 -38 -137 -45 -215 -66 -33 -10 -73 -22 -90 -27 -39 -14 -99 -28
-155 -38 -25 -4 -51 -10 -58 -15 -7 -4 -38 -12 -68 -17 -123 -21 -160 -27
-174 -33 -22 -8 -173 -29 -450 -61 -314 -36 -955 -37 -1235 0 -66 8 -159 19
-207 24 -48 5 -92 12 -97 16 -6 3 -43 10 -83 16 -40 5 -95 13 -123 19 -27 5
-76 14 -109 20 -32 6 -67 15 -77 20 -10 6 -28 10 -40 10 -12 0 -36 4 -53 9
-31 9 -105 30 -186 51 -25 7 -63 18 -85 25 -22 7 -60 18 -85 25 -25 7 -88 28
-140 47 -52 19 -117 41 -145 49 -27 9 -57 19 -65 24 -9 4 -73 31 -143 59 -195
78 -576 268 -732 364 -171 106 -224 139 -300 190 -649 438 -1159 932 -1582
1532 -369 524 -668 1145 -841 1750 -76 264 -129 500 -172 765 -72 446 -86
1066 -35 1505 129 1103 548 2141 1207 2988 518 666 1129 1185 1879 1595 668
366 1403 597 2184 688 277 32 645 41 968 24z"/>
<path d="M6270 12065 c-7 -8 -30 -20 -51 -27 -45 -13 -47 -18 -18 -44 15 -13
19 -28 17 -54 -3 -38 -2 -38 42 -20 25 10 34 10 55 -4 34 -22 35 -21 35 25 0
32 6 46 25 61 30 24 26 34 -19 42 -19 4 -39 13 -46 21 -16 19 -24 19 -40 0z"/>
<path d="M6130 11820 c-36 -4 -109 -8 -164 -9 -98 -1 -211 -11 -356 -33 -41
-6 -93 -12 -115 -14 -96 -9 -276 -42 -351 -65 -17 -5 -41 -9 -53 -9 -13 0 -48
-7 -79 -15 -78 -21 -118 -32 -177 -45 -89 -21 -307 -90 -440 -140 -603 -224
-1168 -547 -1639 -938 -254 -210 -580 -536 -793 -792 -447 -539 -847 -1304
-1029 -1970 -151 -549 -206 -961 -208 -1540 -1 -358 9 -490 60 -830 26 -172
29 -187 69 -365 38 -166 44 -187 96 -365 173 -587 485 -1215 841 -1691 519
-693 1139 -1224 1903 -1632 703 -375 1444 -582 2280 -637 763 -50 1640 91
2365 382 169 68 534 246 710 347 603 346 1150 815 1583 1360 534 669 927 1513
1091 2341 76 383 104 631 113 995 34 1465 -542 2928 -1567 3978 -577 592
-1287 1058 -2059 1351 -54 21 -289 98 -351 116 -25 7 -65 18 -90 25 -25 8 -70
19 -100 25 -30 7 -75 19 -99 26 -25 8 -55 14 -67 14 -13 0 -33 4 -46 9 -28 11
-147 35 -248 51 -41 6 -102 16 -135 22 -194 34 -806 65 -945 48z m735 -384
c806 -101 1481 -338 2164 -761 407 -252 890 -668 1219 -1052 533 -620 932
-1430 1107 -2243 9 -41 20 -93 25 -115 9 -36 20 -100 49 -270 6 -33 18 -132
27 -220 24 -226 24 -807 0 -996 -9 -74 -21 -172 -27 -219 -35 -295 -129 -679
-248 -1018 -186 -528 -489 -1075 -834 -1508 -328 -410 -754 -800 -1192 -1091
-427 -284 -978 -541 -1415 -660 -147 -40 -209 -55 -259 -64 -30 -5 -58 -12
-63 -15 -4 -3 -29 -9 -56 -14 -26 -4 -85 -16 -132 -25 -222 -44 -373 -61 -694
-76 -256 -12 -616 -2 -786 21 -223 31 -342 51 -635 109 -66 13 -272 70 -400
111 -828 264 -1540 707 -2165 1347 -749 765 -1244 1749 -1409 2799 -63 401
-77 894 -36 1304 103 1041 543 2069 1223 2857 136 157 439 458 587 582 600
502 1243 845 1977 1055 314 90 595 140 998 176 159 14 825 5 975 -14z"/>
<path d="M6080 11169 c0 -5 8 -12 18 -16 52 -19 52 -18 52 -290 0 -240 -1
-254 -20 -273 -11 -11 -27 -20 -35 -20 -8 0 -15 -4 -15 -10 0 -6 76 -10 208
-11 114 0 217 -2 229 -3 19 -2 22 4 33 77 6 43 9 81 6 84 -9 9 -26 -8 -46 -48
-29 -55 -57 -70 -148 -76 -122 -9 -122 -9 -122 147 l0 130 75 0 c67 0 79 -3
100 -25 14 -13 25 -31 25 -40 0 -8 7 -15 15 -15 12 0 15 17 15 95 0 79 -3 95
-16 95 -8 0 -20 -13 -25 -30 -13 -37 -57 -51 -134 -43 l-55 6 0 118 0 119 90
0 c111 0 141 -13 164 -70 9 -24 22 -40 29 -37 6 2 12 9 11 15 -1 7 -2 39 -2
71 l-2 60 -225 0 c-136 0 -225 -4 -225 -10z"/>
<path d="M5870 11164 c-14 -3 -44 -7 -68 -10 -40 -5 -51 -24 -13 -24 38 0 49
-32 75 -211 14 -96 26 -196 26 -221 0 -83 -68 -149 -155 -150 -55 -1 -90 16
-115 56 -22 37 -62 292 -64 411 -1 74 1 81 22 90 12 5 22 13 22 17 0 11 -30 9
-130 -5 -79 -12 -107 -28 -61 -35 40 -6 43 -17 81 -339 12 -94 22 -125 56
-170 35 -46 98 -67 184 -61 140 10 210 77 210 198 0 30 -9 127 -21 215 -11 87
-17 170 -14 182 3 13 17 29 30 35 50 23 17 34 -65 22z"/>
<path d="M6818 11151 c-73 -24 -119 -83 -120 -155 -2 -73 19 -99 182 -228 30
-24 61 -57 68 -72 27 -55 -12 -137 -72 -152 -73 -18 -167 43 -187 122 -11 41
-22 54 -32 37 -3 -5 -8 -44 -12 -87 l-8 -79 25 6 c15 4 49 -1 83 -13 158 -54
283 1 301 132 11 77 -23 125 -152 219 -45 32 -89 70 -98 83 -42 65 3 156 78
156 78 0 129 -38 146 -111 18 -74 37 -64 47 24 4 39 8 77 8 82 0 6 -12 9 -26
7 -15 -2 -44 4 -64 13 -47 19 -131 27 -167 16z"/>
<path d="M7214 11044 c-9 -33 -19 -65 -21 -71 -10 -25 19 -12 53 23 34 37 34
37 99 31 36 -4 70 -9 75 -12 9 -6 3 -37 -66 -320 -26 -104 -53 -198 -62 -207
-8 -10 -29 -18 -46 -18 -54 0 -13 -21 91 -46 112 -27 113 -27 113 -14 0 6 -7
10 -15 10 -8 0 -22 11 -30 24 -15 22 -12 40 48 282 72 288 60 269 145 240 41
-14 72 -61 72 -108 0 -31 17 -38 27 -11 4 9 12 42 18 72 l11 56 -226 57 c-124
31 -235 60 -247 64 -20 5 -24 0 -39 -52z"/>
<path d="M4964 11014 c-54 -19 -118 -75 -152 -132 -25 -43 -27 -56 -27 -147 0
-91 3 -106 31 -166 55 -115 141 -179 249 -183 40 -2 65 -10 100 -34 56 -37 99
-47 162 -38 47 6 133 49 133 66 0 14 -12 12 -55 -6 -43 -18 -81 -14 -149 17
l-45 19 46 43 c60 55 93 125 93 198 0 265 -181 435 -386 363z m142 -45 c43
-26 99 -116 127 -204 29 -93 31 -226 3 -272 -46 -75 -149 -93 -221 -38 -91 69
-160 267 -141 399 17 109 141 171 232 115z"/>
<path d="M7846 10923 c-3 -4 3 -12 14 -20 29 -20 25 -50 -19 -160 -21 -54 -60
-157 -87 -230 -50 -135 -63 -153 -114 -153 -11 0 -20 -4 -20 -10 0 -5 6 -10
14 -10 8 0 56 -16 107 -35 50 -20 94 -33 97 -30 3 2 -7 14 -21 26 -15 11 -27
28 -27 37 0 31 82 222 95 222 38 0 55 -36 93 -199 l39 -164 71 -27 c39 -15
118 -53 177 -85 59 -31 109 -54 113 -51 3 3 -7 19 -23 36 l-28 29 113 223 c61
123 121 231 133 241 14 13 30 17 49 13 53 -11 27 12 -72 63 -94 48 -133 55
-90 16 11 -10 20 -26 20 -35 0 -23 -214 -453 -234 -469 -13 -11 -23 -10 -62 5
-25 9 -53 28 -62 42 -9 13 -32 81 -52 151 -20 69 -40 136 -44 149 -7 20 -4 22
31 22 61 0 124 37 151 90 63 126 0 194 -269 288 -48 17 -90 28 -93 25z m212
-110 c92 -43 98 -154 12 -227 -18 -14 -44 -26 -59 -26 -33 0 -121 29 -121 40
0 9 77 217 85 231 7 11 31 5 83 -18z"/>
<path d="M4395 10814 c-82 -36 -169 -73 -192 -82 -50 -19 -56 -39 -13 -39 17
0 32 -2 35 -5 14 -14 205 -464 205 -483 0 -12 -10 -29 -22 -37 -45 -30 1 -25
77 9 44 19 133 57 198 83 65 26 121 50 123 53 11 10 -28 158 -40 154 -6 -2
-14 -28 -19 -58 -11 -81 -31 -98 -205 -166 -12 -5 -105 176 -114 221 -2 15 12
24 75 49 l77 30 28 -26 c35 -34 56 -36 46 -5 -16 51 -63 153 -70 153 -5 0 -11
-15 -15 -32 -3 -18 -12 -40 -19 -48 -12 -15 -140 -79 -146 -73 -6 7 -94 221
-91 224 1 2 40 19 86 38 102 44 128 45 166 6 26 -27 62 -42 53 -22 -1 4 -14
33 -27 65 -14 31 -29 57 -35 57 -6 0 -78 -30 -161 -66z"/>
<path d="M3572 10372 c-95 -59 -112 -79 -64 -74 17 2 34 -4 44 -15 19 -21 206
-330 235 -388 25 -48 17 -77 -26 -99 -42 -22 -63 -20 -130 14 -61 30 -389 211
-453 250 -32 18 -39 19 -44 7 -3 -8 19 -102 49 -208 82 -291 107 -385 107
-407 0 -10 -9 -31 -21 -46 -18 -23 -28 -26 -77 -26 -53 1 -268 33 -278 42 -2
3 3 23 12 46 24 61 12 107 -42 159 -85 82 -150 70 -269 -51 -100 -101 -160
-174 -151 -183 3 -4 12 -1 18 5 7 7 25 12 40 12 22 0 60 -29 179 -137 84 -76
167 -151 187 -167 33 -28 34 -32 28 -80 -6 -57 -12 -61 84 52 61 73 71 94 32
73 -35 -19 -47 -13 -137 66 l-88 77 32 28 c18 16 35 27 39 24 4 -2 76 -16 161
-30 l154 -26 66 63 c36 34 90 82 118 106 29 24 50 48 47 53 -3 5 -12 4 -19 -2
-22 -19 -59 -7 -73 22 -7 15 -19 48 -26 72 l-14 45 88 76 88 75 69 -39 c69
-39 76 -51 58 -93 -12 -29 8 -21 79 33 99 75 301 209 405 269 50 29 91 58 91
64 -1 23 -48 140 -59 144 -7 2 -11 -16 -11 -57 0 -53 -4 -64 -31 -96 -27 -31
-153 -115 -171 -115 -14 0 -268 417 -268 440 0 8 12 26 26 41 45 47 11 39 -84
-19z m-145 -553 c-4 -11 -134 -119 -143 -119 -8 0 -74 211 -74 237 0 6 49 -17
110 -51 60 -33 108 -64 107 -67z m-641 -235 c46 -22 88 -93 79 -133 -8 -37
-63 -121 -79 -121 -15 0 -176 148 -176 162 0 21 53 80 84 94 41 17 51 17 92
-2z"/>
<path d="M8890 10323 c-52 -36 -138 -97 -190 -134 -183 -129 -239 -161 -271
-157 -17 3 -32 1 -35 -4 -5 -8 143 -108 159 -108 5 0 -1 15 -12 34 -12 18 -21
38 -21 43 0 11 99 89 123 99 13 5 207 -120 207 -133 0 -29 -35 -141 -47 -150
-9 -7 -28 -9 -44 -6 -16 3 -29 3 -29 0 0 -4 35 -30 78 -58 42 -29 118 -85 168
-126 51 -40 94 -73 97 -73 3 0 -1 16 -9 36 -13 31 -13 39 -1 57 15 22 148 175
239 276 l49 53 -6 -38 c-10 -79 -25 -284 -31 -445 l-7 -165 29 -33 29 -32 200
201 c110 110 210 203 221 206 12 3 35 -1 52 -10 16 -8 32 -12 36 -9 7 7 -133
153 -147 153 -4 0 -5 -15 -2 -32 6 -30 0 -40 -71 -118 -42 -47 -120 -129 -172
-183 l-95 -99 7 124 c9 161 39 463 51 524 4 16 -10 33 -56 73 -71 59 -89 65
-60 17 12 -18 21 -41 21 -49 0 -9 -35 -55 -77 -104 -188 -210 -265 -293 -277
-293 -22 0 -80 45 -93 71 -10 21 -7 50 18 175 53 260 89 466 83 475 -9 15 -16
11 -114 -58z m0 -160 c-11 -59 -23 -118 -26 -130 -4 -22 -8 -20 -90 34 -81 54
-84 57 -67 74 26 26 196 140 201 135 2 -2 -6 -53 -18 -113z"/>
<path d="M5965 10319 c-22 -4 -64 -8 -92 -8 -65 -1 -192 -19 -365 -52 -27 -5
-69 -13 -95 -18 -27 -4 -75 -16 -108 -25 -33 -10 -91 -26 -130 -36 -520 -135
-1138 -469 -1576 -853 -358 -314 -699 -745 -933 -1182 -94 -175 -236 -515
-285 -685 -12 -41 -27 -91 -33 -110 -6 -19 -15 -51 -19 -70 -4 -19 -19 -90
-33 -158 -31 -144 -59 -356 -77 -572 -26 -334 21 -914 100 -1219 6 -20 17 -65
26 -101 9 -36 41 -139 72 -230 201 -601 499 -1098 913 -1523 399 -410 828
-717 1280 -915 549 -240 1094 -356 1680 -355 895 1 1728 279 2445 816 490 367
913 874 1189 1424 274 548 413 1099 432 1718 16 497 -60 970 -233 1460 -301
854 -915 1621 -1678 2098 -165 103 -472 259 -640 325 -387 151 -755 240 -1135
272 -144 12 -646 12 -705 -1z m700 -140 c269 -24 628 -100 870 -183 598 -205
1110 -527 1541 -968 441 -452 741 -941 938 -1528 79 -236 135 -464 165 -675
49 -340 48 -798 -4 -1139 -104 -693 -393 -1344 -848 -1910 -96 -119 -416 -443
-537 -543 -438 -361 -988 -638 -1525 -769 -127 -31 -294 -64 -370 -74 -91 -12
-240 -29 -342 -40 -119 -13 -435 -13 -521 0 -37 5 -119 15 -182 20 -143 13
-232 25 -290 38 -25 6 -70 16 -100 22 -73 15 -135 29 -190 45 -25 7 -65 18
-90 25 -260 74 -574 204 -810 338 -717 406 -1247 965 -1613 1698 -275 550
-413 1142 -410 1755 5 860 262 1627 776 2319 137 184 246 307 434 490 673 655
1562 1038 2543 1094 98 5 440 -3 565 -15z"/>
<path d="M5680 9394 c-1 -111 -12 -218 -29 -282 -10 -34 -18 -45 -49 -58 -46
-19 -211 -54 -259 -54 -55 0 -166 37 -219 73 -59 40 -135 148 -166 237 l-23
65 -3 -45 c-10 -132 90 -349 221 -482 91 -92 204 -143 346 -156 l76 -7 12 45
11 45 -1 -52 c-1 -28 -6 -51 -12 -50 -5 1 -11 -9 -13 -23 l-3 -25 -127 0
c-124 0 -128 -1 -195 -34 -162 -81 -264 -257 -330 -566 -27 -127 -71 -424 -64
-432 3 -2 19 22 37 54 50 89 141 219 223 317 65 78 75 96 85 149 17 91 73 199
139 269 54 56 200 164 210 155 2 -3 -1 -35 -8 -72 -24 -137 8 -241 114 -372
28 -35 51 -63 51 -63 1 0 -3 62 -7 138 -10 160 -2 460 14 596 11 89 14 96 34
96 13 0 29 8 36 17 8 9 9 14 3 10 -13 -7 -24 13 -24 44 0 33 -19 21 -26 -16
-8 -45 -21 -54 -16 -11 l4 33 -47 -11 c-39 -9 -47 -15 -52 -39 -12 -58 -15
-15 -3 50 l11 69 52 -2 c28 -2 53 -8 55 -13 5 -15 29 -14 35 2 3 7 6 5 6 -5 1
-12 6 -15 18 -11 10 4 14 2 10 -4 -3 -5 0 -10 8 -10 8 0 15 4 15 8 0 4 3 14 6
23 3 9 1 16 -6 16 -6 0 -8 -4 -5 -10 10 -16 -25 -12 -41 5 -12 12 -12 15 -2
15 8 0 9 3 3 8 -19 13 -7 71 21 99 9 10 13 9 18 -4 4 -9 9 -13 12 -10 3 3 -18
61 -46 129 -68 163 -102 242 -106 247 -2 2 -4 -40 -4 -95z m58 -79 c-3 -3 -9
2 -12 12 -6 14 -5 15 5 6 7 -7 10 -15 7 -18z m25 -45 c3 -11 2 -20 -3 -20 -8
0 -20 24 -20 41 0 17 17 1 23 -21z m-67 -86 l-15 -29 -1 31 c0 34 9 49 23 35
5 -5 3 -20 -7 -37z m-89 -381 c-3 -10 -5 -4 -5 12 0 17 2 24 5 18 2 -7 2 -21
0 -30z m-187 -190 c-28 -3 -49 -11 -57 -22 -16 -24 -53 -34 -59 -16 -3 8 -14
11 -27 7 -34 -8 -15 6 29 22 21 8 66 14 99 14 51 -1 53 -2 15 -5z m-280 -123
c-12 -16 -24 -30 -26 -30 -7 0 5 20 24 43 24 27 25 20 2 -13z m-124 -207 c-8
-15 -15 -25 -16 -21 0 12 23 58 27 54 3 -2 -2 -17 -11 -33z"/>
<path d="M4717 9057 c5 -268 64 -572 150 -767 l24 -55 19 51 c33 94 92 194
148 250 l55 55 -34 29 c-36 31 -56 39 -42 18 4 -7 -12 2 -35 20 -52 42 -56 55
-4 16 26 -19 18 -8 -29 42 -37 38 -87 101 -112 140 -47 73 -109 213 -122 274
-15 74 -20 54 -18 -73z m178 -277 c7 -13 6 -13 -7 -2 -8 7 -22 10 -29 7 -8 -3
-21 0 -29 5 -12 8 -13 13 -2 30 15 24 16 41 1 20 -8 -12 -9 -10 -4 7 3 12 1
24 -5 28 -5 3 -10 11 -10 17 0 10 57 -66 85 -112z m-128 -52 c-3 -7 -5 -2 -5
12 0 14 2 19 5 13 2 -7 2 -19 0 -25z"/>
<path d="M5928 9112 c-43 -1 -78 -6 -78 -10 0 -4 14 -32 31 -62 42 -75 51
-100 35 -94 -7 3 -18 -6 -25 -20 -8 -14 -19 -22 -27 -19 -19 7 -18 -17 2 -45
24 -35 69 -26 87 18 4 12 6 12 6 -2 1 -9 6 -20 13 -24 7 -4 8 -3 4 4 -11 18
163 15 249 -3 133 -28 235 -87 554 -315 505 -362 766 -508 955 -535 66 -9 54
6 -47 57 -217 108 -393 250 -797 643 -69 67 -143 135 -165 152 -95 72 -278
159 -430 206 -143 44 -223 55 -367 49z m20 -207 c-3 -3 -9 2 -12 12 -6 14 -5
15 5 6 7 -7 10 -15 7 -18z"/>
<path d="M5860 9010 c13 -24 35 -27 26 -4 -3 9 -6 18 -6 20 0 2 -7 4 -15 4
-13 0 -14 -4 -5 -20z"/>
<path d="M5781 8858 c-2 -19 63 -239 94 -320 l35 -91 -35 -76 c-36 -77 -58
-165 -71 -280 l-7 -64 78 54 c42 30 102 74 133 99 l56 45 80 -85 c265 -284
437 -619 557 -1087 l33 -126 13 34 c14 37 15 40 -3 -61 -4 -23 -3 -32 3 -25
17 17 43 235 43 355 0 248 -66 471 -195 666 -64 96 -192 237 -208 227 -5 -3
-7 -1 -4 4 7 12 -94 111 -198 194 l-66 54 7 90 c3 49 8 92 10 94 1 1 38 -9 81
-23 170 -57 395 -218 532 -381 98 -117 268 -343 310 -412 76 -124 180 -430
231 -678 77 -371 67 -605 -41 -961 -5 -17 -9 -40 -9 -52 0 -11 -5 -24 -11 -27
-6 -4 -8 -13 -5 -20 2 -7 -1 -18 -7 -24 -6 -6 -8 -13 -5 -16 3 -3 13 10 22 30
16 33 31 50 20 22 -3 -8 2 -20 11 -27 12 -10 15 -10 15 0 0 8 3 10 8 6 4 -4 7
-29 8 -54 1 -26 4 -59 8 -74 4 -15 3 -34 -2 -44 -11 -19 -43 -28 -52 -14 -7
11 -55 -11 -55 -25 0 -6 -4 -16 -8 -22 -5 -7 -5 -17 -2 -23 3 -5 1 -10 -4 -10
-6 0 -11 -20 -11 -46 0 -39 3 -45 17 -40 15 6 15 5 -1 -13 -10 -11 -22 -18
-26 -16 -4 2 -15 -4 -24 -14 -20 -22 -66 -36 -75 -24 -3 5 -18 14 -33 20 -27
12 -29 11 -52 -35 -22 -44 -23 -49 -8 -59 16 -10 15 -12 -3 -34 -14 -17 -11
-16 12 5 28 25 33 27 47 14 17 -18 9 -27 -86 -97 -62 -44 -78 -51 -57 -23 11
15 11 15 -1 4 -8 -7 -15 -18 -15 -24 0 -6 -11 -18 -24 -27 -27 -17 -19 -1 104
211 27 48 65 114 84 147 48 85 92 136 102 119 7 -11 9 -11 9 1 0 8 7 11 20 8
11 -3 23 -1 26 4 3 5 -2 9 -10 9 -23 0 -30 19 -13 38 17 19 47 77 47 89 0 4
-13 -13 -28 -39 -15 -25 -57 -81 -95 -124 -37 -43 -80 -97 -95 -121 -43 -69
-44 -50 0 50 58 133 74 180 103 293 73 290 88 586 46 909 -12 93 -24 171 -26
174 -3 2 -11 -4 -19 -14 -11 -16 -14 -10 -20 51 -13 122 -93 469 -115 496 -3
4 -5 -54 -3 -129 6 -248 -45 -591 -115 -788 -34 -93 -98 -220 -168 -330 -32
-49 -77 -121 -101 -160 -23 -38 -101 -135 -172 -215 -138 -153 -144 -165 -111
-219 14 -21 39 -21 66 1 7 5 17 7 23 3 18 -11 63 24 54 43 -3 9 -6 27 -5 40 0
13 -3 20 -9 17 -6 -3 -10 -2 -10 3 0 5 -13 15 -30 22 -16 7 -30 15 -30 19 0 4
20 26 44 50 l43 43 11 -29 c6 -15 22 -41 36 -58 23 -27 27 -28 36 -13 9 15 14
16 33 5 12 -6 24 -14 27 -17 3 -3 12 -5 20 -5 8 0 25 -8 37 -19 17 -14 20 -23
12 -37 -7 -14 -4 -23 12 -38 15 -14 20 -28 17 -45 -6 -32 24 -65 45 -48 8 7
18 7 27 2 12 -7 11 -12 -5 -29 -10 -12 -16 -23 -13 -26 3 -3 18 13 33 35 31
45 47 55 20 13 -39 -62 -132 -187 -160 -217 -16 -18 -23 -23 -14 -12 9 12 19
26 22 32 9 16 -44 9 -54 -8 -7 -11 -9 -11 -9 0 0 7 -4 10 -10 7 -5 -3 -10 -1
-10 5 0 6 -3 9 -7 7 -5 -3 -8 -28 -7 -55 0 -35 -4 -48 -12 -45 -7 2 -15 -1
-20 -8 -4 -8 -3 -10 4 -5 17 10 15 -9 -2 -23 -11 -10 -15 -8 -19 6 -3 13 -5
11 -6 -7 -1 -22 -20 -66 -21 -47 0 4 -11 0 -24 -8 -24 -16 -25 -16 -28 16 -3
30 -4 31 -18 14 -9 -11 -10 -16 -2 -11 18 10 15 -9 -4 -25 -8 -7 -13 -21 -11
-31 3 -10 1 -16 -4 -12 -5 3 -9 -1 -9 -10 0 -8 6 -16 13 -19 18 -7 -107 -127
-132 -127 -12 0 -22 1 -24 3 -12 8 -38 -37 -35 -60 3 -26 18 -14 208 177 113
112 180 175 150 140 -86 -101 -309 -322 -371 -368 l-56 -42 -28 -148 c-76
-400 -103 -526 -104 -482 l-2 45 -19 -36 c-14 -26 -17 -44 -11 -65 7 -27 8
-28 19 -9 11 19 11 19 12 -5 0 -14 -7 -54 -14 -90 -29 -134 -29 -168 -2 -303
30 -151 32 -169 13 -143 -13 17 -14 17 -30 1 -20 -19 -21 -26 -6 -59 14 -30
49 -31 49 -2 0 42 11 5 24 -85 8 -52 17 -103 21 -114 3 -11 -4 0 -15 23 -11
24 -17 49 -13 55 3 5 2 7 -4 4 -11 -7 -130 229 -120 239 4 4 7 1 7 -7 0 -9 6
-24 14 -34 13 -19 14 -18 9 5 -3 18 3 33 19 50 16 18 22 35 20 55 -3 29 -22
61 -22 37 0 -7 -13 -3 -35 9 -19 12 -35 17 -35 12 0 -4 -5 -1 -11 7 -8 12 -9
8 -5 -15 3 -19 -7 -5 -29 39 -22 44 -32 78 -29 92 3 12 1 25 -5 28 -6 4 -11 1
-11 -6 -1 -7 -15 14 -32 46 -29 57 -29 60 -12 73 11 8 29 16 42 20 12 3 22 9
22 15 0 5 5 6 12 2 8 -5 9 -2 5 9 -3 10 -3 17 2 17 5 0 11 -10 14 -22 4 -12 9
-19 13 -16 3 4 -6 41 -20 83 -25 73 -26 82 -26 325 l0 250 -40 88 c-67 146
-74 157 -94 157 -13 0 -31 -19 -53 -55 -36 -60 -42 -114 -23 -197 9 -38 6 -56
-26 -150 -32 -97 -49 -155 -74 -248 -5 -16 -16 -55 -25 -85 -9 -30 -20 -71
-25 -90 -4 -19 -18 -68 -29 -107 -12 -40 -21 -83 -20 -95 0 -27 47 -103 194
-318 183 -267 265 -377 435 -580 11 -14 1 9 -23 50 -86 146 -311 527 -409 692
-92 155 -100 171 -96 210 4 36 55 243 113 453 7 28 16 63 19 78 4 15 11 25 16
22 6 -4 9 -82 8 -198 l-3 -192 89 -185 c76 -160 146 -320 146 -335 0 -23 -28
12 -86 107 -57 95 -137 219 -216 337 l-17 25 -10 -25 c-5 -14 -16 -48 -24 -76
-15 -49 -14 -52 7 -84 32 -48 327 -518 426 -680 45 -74 103 -163 129 -199 l46
-65 6 103 c6 97 9 106 44 160 21 31 53 76 71 99 19 23 34 45 34 50 -1 4 -9 -2
-18 -13 -16 -19 -20 -20 -38 -7 -19 14 -19 15 2 11 11 -2 28 3 37 11 10 7 17
10 17 5 0 -4 16 7 35 26 36 35 49 63 18 39 -10 -7 -7 -1 6 13 13 15 27 25 31
23 11 -7 43 32 36 44 -4 5 -1 13 5 17 8 5 10 2 5 -7 -4 -8 4 0 19 16 14 17 41
59 59 95 36 69 47 103 152 440 36 118 72 226 79 240 7 14 34 42 60 64 25 21
44 41 41 44 -4 3 -18 -5 -32 -19 l-26 -24 12 26 c9 20 19 26 40 25 24 -1 50
19 147 115 150 146 264 282 365 434 81 120 178 301 178 330 0 8 7 15 15 15 17
0 17 -2 -6 -178 -5 -40 -9 -91 -9 -112 0 -21 -9 -54 -19 -72 -11 -18 -47 -105
-81 -193 -34 -88 -110 -263 -170 -390 -126 -267 -152 -356 -171 -576 -18 -227
-1 -349 58 -411 32 -34 45 -36 34 -5 -21 55 -33 211 -28 363 4 139 9 173 36
266 39 134 92 251 161 354 58 86 121 166 126 161 2 -2 -8 -34 -21 -73 -26 -75
-36 -146 -21 -154 12 -7 66 93 125 230 178 421 263 869 248 1305 -6 156 -31
413 -42 424 -3 2 -6 -18 -6 -45 -1 -27 -3 -41 -6 -31 -5 18 -6 18 -19 -2 -9
-12 -21 -21 -29 -21 -8 0 -18 -20 -24 -50 -14 -66 -14 -69 5 -42 8 12 19 20
24 17 4 -3 15 11 24 30 9 19 21 37 25 40 11 6 25 -110 18 -146 -4 -20 -4 -19
-6 8 -1 26 -4 30 -21 26 -11 -3 -20 -10 -20 -17 -1 -32 -56 -58 -72 -33 -6 9
-8 9 -8 0 0 -18 -62 -185 -66 -180 -2 2 9 42 25 88 79 229 108 408 117 723 4
135 10 246 14 246 4 0 14 -24 23 -52 9 -29 36 -111 61 -183 82 -236 129 -467
141 -705 8 -146 -8 -423 -30 -530 -20 -96 -84 -287 -129 -387 l-36 -78 58 61
c73 78 152 212 192 323 30 84 34 89 88 125 69 46 98 53 131 35 35 -20 51 -55
51 -114 0 -27 5 -57 10 -65 14 -23 44 55 45 118 0 54 0 54 -67 117 -41 40 -78
66 -100 70 -29 7 -30 9 -13 16 11 4 52 8 91 8 63 1 76 -3 127 -33 31 -19 57
-30 57 -25 0 46 -124 166 -213 207 -65 30 -58 40 28 41 35 1 67 -7 110 -28 71
-33 90 -53 115 -117 18 -47 19 -48 20 -17 0 46 -31 124 -74 182 -43 59 -111
106 -182 127 -28 8 -59 21 -70 29 -10 8 -22 15 -26 15 -5 0 -9 -35 -9 -77 -1
-43 -4 -64 -6 -48 -6 40 -18 51 -38 35 -8 -7 -15 -9 -16 -4 -3 23 4 60 12 65
5 3 13 25 18 50 8 42 9 43 10 10 1 -22 5 -31 10 -25 15 15 -6 152 -45 287 -54
190 -163 395 -274 517 -34 37 -40 41 -34 20 14 -52 14 -54 -1 -23 -14 30 -12
63 4 63 16 0 124 -71 171 -112 77 -68 233 -252 326 -385 47 -68 87 -123 89
-123 10 0 -97 226 -154 326 -67 115 -143 228 -164 241 -6 4 -4 -5 6 -20 19
-29 22 -41 8 -32 -5 3 -12 -3 -14 -12 -4 -17 -11 48 -8 75 1 7 -42 57 -96 111
-80 80 -116 108 -194 150 -77 41 -98 57 -104 78 -3 15 -31 81 -61 147 -29 66
-52 121 -50 124 2 2 12 -1 23 -6 28 -16 174 -82 180 -82 2 0 1 5 -3 12 -4 7
-3 8 5 4 6 -4 9 -11 6 -16 -3 -4 30 -33 72 -63 43 -30 126 -100 185 -156 l107
-102 -62 108 c-185 319 -372 535 -624 719 -90 66 -106 74 -146 74 -33 0 -53 6
-74 24 -15 12 -33 25 -40 27 -6 2 -65 56 -131 119 -182 177 -389 314 -546 364
-115 37 -238 57 -328 54 -67 -2 -80 0 -94 17 -18 22 -14 16 46 -74 17 -25 30
-51 30 -59 0 -8 -12 7 -26 34 -14 27 -29 52 -32 56 -12 12 -62 17 -62 7 0 -6
-5 -7 -11 -4 -5 4 -22 8 -36 10 -15 1 -43 20 -66 45 -26 27 -46 40 -58 37 -14
-4 -21 5 -33 37 -8 22 -15 38 -15 34z m157 -226 c5 -15 -17 -37 -45 -44 -18
-5 -24 0 -32 25 -6 16 -11 30 -11 31 0 1 19 1 42 1 23 0 43 -6 46 -13z m836
-452 c70 -69 147 -147 169 -175 22 -27 32 -42 22 -33 -17 16 -19 16 -30 1 -10
-14 -17 -9 -49 33 -31 41 -35 50 -21 52 13 3 5 16 -36 58 -29 30 -57 54 -62
54 -4 0 -54 46 -110 102 -57 57 -82 87 -57 68 25 -19 103 -91 174 -160z m453
-60 c21 0 24 -3 13 -9 -8 -6 -18 -7 -22 -5 -11 7 -10 -4 2 -27 19 -34 3 -20
-34 30 -41 55 -48 80 -11 39 15 -18 34 -28 52 -28z m183 -83 c20 -18 34 -31
32 -30 -11 5 -33 -30 -36 -54 -1 -22 -6 -27 -21 -25 -11 2 -17 1 -13 -4 4 -4
1 -12 -7 -18 -13 -9 -9 -20 24 -72 21 -34 45 -65 52 -69 8 -5 10 -4 5 3 -4 7
-2 12 3 12 6 0 11 -4 11 -10 0 -5 9 -10 20 -10 12 0 21 -8 24 -22 5 -22 5 -88
0 -88 -2 0 -247 359 -259 380 -4 8 4 4 20 -10 16 -14 25 -19 21 -12 -4 6 -3
12 2 12 6 0 20 11 33 25 31 32 47 31 89 -8z m-919 -24 c13 -16 12 -17 -3 -4
-10 7 -18 15 -18 17 0 8 8 3 21 -13z m534 -121 c-2 -7 -1 -11 4 -8 10 7 38
-24 81 -89 20 -29 25 -43 14 -34 -22 19 -44 14 -44 -9 0 -9 -18 9 -39 42 -30
45 -37 64 -31 80 5 15 1 30 -13 51 l-21 30 28 -25 c14 -13 24 -30 21 -38z
m585 -31 c0 -2 -8 3 -18 12 -14 13 -25 14 -57 6 -22 -6 -47 -10 -56 -10 -12 0
-16 -7 -13 -22 2 -12 2 -17 -2 -10 -3 7 -13 9 -22 6 -14 -5 -15 -3 -4 8 6 7
12 20 12 29 0 8 9 21 20 28 12 7 18 18 14 25 -5 9 -3 9 7 0 20 -19 39 -16 32
5 -3 9 15 -3 41 -28 25 -24 46 -46 46 -49z m75 -71 l39 -39 -30 2 c-30 2 -53
28 -54 60 0 9 1 17 3 17 2 0 20 -18 42 -40z m-1035 -11 c12 -23 20 -43 18 -45
-3 -2 -14 17 -26 41 -27 56 -20 60 8 4z m570 -149 c98 -161 218 -426 234 -520
5 -31 5 -32 -5 -10 -10 24 -11 24 -21 6 -11 -19 -11 -19 -25 0 -15 19 -15 19
-10 -1 44 -168 51 -215 52 -357 0 -125 2 -148 15 -148 25 -1 50 -26 50 -50 0
-26 -57 -83 -76 -76 -8 3 -15 -7 -19 -25 -4 -17 -8 -29 -10 -27 -2 2 5 55 16
118 43 240 -3 526 -127 803 -41 89 -64 132 -156 285 -31 51 -13 37 22 -18 34
-52 34 -53 62 -42 17 7 16 9 -3 41 -11 18 -23 31 -26 27 -11 -11 -33 16 -33
41 0 13 -5 34 -11 46 -26 51 21 -10 71 -93z m701 -217 c13 -16 12 -17 -3 -4
-10 7 -18 15 -18 17 0 8 8 3 21 -13z m-1144 -175 c-2 -13 -4 -3 -4 22 0 25 2
35 4 23 2 -13 2 -33 0 -45z m1006 7 c51 -35 47 -41 -5 -9 -51 32 -54 34 -42
34 5 0 26 -11 47 -25z m-96 -47 c-3 -8 -6 -5 -6 6 -1 11 2 17 5 13 3 -3 4 -12
1 -19z m10 -40 c-3 -8 -6 -5 -6 6 -1 11 2 17 5 13 3 -3 4 -12 1 -19z m198 -8
c10 -11 16 -20 13 -20 -3 0 -13 9 -23 20 -10 11 -16 20 -13 20 3 0 13 -9 23
-20z m-380 -313 c8 -65 14 -174 13 -240 l-1 -122 -8 140 c-3 77 -7 141 -8 142
0 1 -12 -2 -26 -7 -25 -9 -25 -9 -25 41 0 28 4 48 8 45 4 -2 8 3 8 12 1 9 5
26 9 36 6 14 5 17 -3 12 -7 -4 -12 -2 -12 6 0 7 -3 24 -7 37 -4 18 -3 22 6 16
10 -5 11 4 7 41 l-6 49 14 -45 c9 -24 22 -98 31 -163z m485 81 c0 -6 -6 -5
-15 2 -8 7 -15 14 -15 16 0 2 7 1 15 -2 8 -4 15 -11 15 -16z m-96 -84 c8 -21
8 -24 -3 -24 -5 0 -11 9 -14 20 -6 24 8 27 17 4z m-827 -351 c-3 -10 -5 -4 -5
12 0 17 2 24 5 18 2 -7 2 -21 0 -30z m-289 -10 c14 -27 15 -123 1 -139 -6 -8
-24 -14 -39 -14 -14 0 -30 -3 -34 -7 -4 -5 -21 -8 -36 -8 l-29 0 36 65 c66
120 84 137 101 103z m279 -55 c-3 -7 -5 -2 -5 12 0 14 2 19 5 13 2 -7 2 -19 0
-25z m449 -40 c-14 -113 -15 -115 -46 -113 -21 1 -32 -5 -44 -27 -10 -15 -21
-28 -27 -28 -5 0 -7 -10 -5 -22 3 -13 5 -29 5 -37 1 -10 4 -11 15 -2 11 10 17
8 25 -6 11 -21 13 -18 37 64 l14 48 -6 -44 c-7 -50 -44 -163 -67 -207 -18 -33
-22 -28 -7 10 11 29 4 33 -20 11 -15 -14 -20 -13 -45 9 -16 14 -32 23 -36 20
-10 -6 -19 23 -13 44 3 9 -4 1 -15 -18 -29 -50 -26 -23 5 46 15 33 44 104 66
159 29 76 38 90 34 60 -2 -22 -2 -33 0 -25 3 8 23 23 45 32 21 9 37 12 34 7
-4 -5 -1 -9 4 -9 6 0 11 6 11 13 0 9 3 8 9 -2 6 -10 11 -1 16 28 10 59 19 51
11 -11z m-459 -10 c-3 -7 -5 -2 -5 12 0 14 2 19 5 13 2 -7 2 -19 0 -25z m-132
-53 c16 -17 16 -42 0 -49 -8 -3 -15 -1 -15 5 0 6 -5 7 -10 4 -6 -4 -9 -1 -8 7
2 7 -3 12 -9 11 -7 -2 -13 5 -13 15 0 20 38 25 55 7z m-300 -65 c-3 -11 -2
-20 3 -20 11 0 1 -65 -15 -95 -6 -11 -8 -26 -6 -32 3 -7 -2 -16 -11 -19 -10
-4 -16 -18 -16 -35 0 -29 -13 -38 -25 -19 -4 6 -11 8 -16 5 -5 -4 -14 5 -21
19 -6 14 -16 26 -21 26 -5 0 6 18 24 39 19 22 50 64 69 95 36 59 45 69 35 36z
m394 -29 c-7 -23 -14 -39 -16 -37 -3 2 1 23 8 45 7 23 14 39 16 37 3 -2 -1
-23 -8 -45z m962 -86 c5 4 9 -4 9 -17 0 -18 -2 -20 -10 -8 -6 10 -10 0 -13
-35 -3 -39 -4 -35 -4 20 0 39 1 62 4 52 2 -9 9 -15 14 -12z m-1017 -74 c-9
-23 -18 -40 -20 -38 -2 2 4 22 13 45 9 23 18 40 20 38 2 -2 -4 -22 -13 -45z
m366 -31 c0 -5 -4 -10 -10 -10 -5 0 -10 5 -10 10 0 6 5 10 10 10 6 0 10 -4 10
-10z m439 -37 c-1 -27 -3 -41 -6 -32 -3 11 -11 15 -24 12 -25 -7 -25 13 1 29
11 7 20 18 20 25 0 7 2 13 5 13 3 0 4 -21 4 -47z m335 -75 c-4 -40 -10 -84
-15 -98 -7 -23 -7 -23 -8 8 -1 32 21 162 27 162 2 0 0 -33 -4 -72z m-1213 -17
c-17 -34 -33 -61 -36 -61 -3 0 10 29 27 65 18 35 34 63 36 61 2 -2 -11 -31
-27 -65z m639 19 c-12 -23 -17 -39 -11 -35 16 9 25 -23 12 -39 -6 -7 -7 -17
-3 -21 4 -5 2 -5 -5 -2 -6 4 -14 1 -16 -5 -3 -7 -3 3 -1 22 8 51 -8 22 -45
-83 -17 -49 -28 -94 -24 -100 12 -18 10 -77 -2 -79 -5 0 -16 -2 -23 -2 -8 -1
-20 -12 -29 -26 -17 -29 -19 -36 52 165 52 150 102 262 111 252 3 -3 -4 -24
-16 -47z m-852 -10 c3 -7 0 -10 -7 -6 -6 4 -11 0 -11 -11 0 -14 -2 -15 -9 -4
-11 17 -3 43 12 38 6 -2 13 -9 15 -17z m876 -16 c4 -10 1 -14 -6 -12 -15 5
-23 28 -10 28 5 0 13 -7 16 -16z m-230 -73 c-14 -28 -39 -65 -55 -83 -28 -32
-28 -32 3 19 18 28 41 65 50 82 9 17 20 31 23 31 4 0 -6 -22 -21 -49z m-633
30 c6 10 9 5 9 -16 -1 -29 -1 -29 -15 -11 -8 11 -15 25 -14 30 0 6 3 5 6 -3 5
-11 7 -11 14 0z m138 -65 c-29 -49 -36 -46 -8 4 12 22 24 38 26 36 2 -2 -6
-20 -18 -40z m938 -18 c-2 -13 -4 -5 -4 17 -1 22 1 32 4 23 2 -10 2 -28 0 -40z
m190 0 c-3 -8 -6 -5 -6 6 -1 11 2 17 5 13 3 -3 4 -12 1 -19z m-200 -110 c-3
-7 -5 -2 -5 12 0 14 2 19 5 13 2 -7 2 -19 0 -25z m-632 -98 c-21 -22 -41 -37
-44 -35 -2 3 13 23 34 45 21 22 41 37 44 35 2 -3 -13 -23 -34 -45z m230 -83
c-14 -35 -14 -38 5 -57 29 -29 74 -26 100 8 15 20 12 10 -10 -35 -28 -58 -48
-86 -33 -46 5 12 2 15 -10 10 -8 -3 -18 -1 -20 6 -3 8 -15 2 -31 -15 -15 -16
-35 -29 -44 -30 -32 -2 -37 -4 -50 -12 -8 -5 12 41 45 102 58 111 76 136 48
69z m215 -17 c6 0 6 -9 0 -22 -5 -13 -11 -36 -15 -52 -11 -52 -18 -18 -9 51 4
37 10 58 12 46 2 -13 7 -23 12 -23z m161 -16 c-7 -31 -9 -34 -10 -12 -1 27 9
62 15 55 3 -2 0 -22 -5 -43z m-500 -185 c-11 -18 -17 -38 -14 -45 8 -23 -5
-61 -22 -61 -8 0 -15 5 -15 11 0 5 -21 -18 -47 -51 -26 -34 -49 -60 -51 -58
-3 2 9 21 25 42 16 21 53 73 82 116 51 76 79 107 42 46z m91 -91 c-9 -16 -24
-35 -32 -41 -13 -10 -13 -10 -2 5 8 9 11 22 7 28 -3 5 1 13 9 16 9 3 14 9 11
13 -2 4 2 8 10 8 12 0 11 -6 -3 -29z m-205 -134 c3 -8 11 -14 19 -14 8 0 11
-6 7 -17 -5 -15 -3 -14 10 2 14 17 16 18 17 3 0 -26 -28 -37 -67 -25 -27 8
-33 15 -29 30 4 17 2 17 -21 -4 -49 -47 -128 -143 -110 -136 12 5 17 1 17 -12
0 -11 3 -28 6 -38 4 -11 3 -14 -3 -6 -5 7 -17 10 -28 9 -11 -2 -25 0 -31 5 -6
5 -36 -17 -77 -59 -87 -87 -84 -84 -64 -76 19 7 22 -8 7 -36 -12 -22 -42 -16
-33 7 5 13 3 13 -16 3 -19 -10 -21 -17 -17 -56 3 -25 10 -52 17 -60 9 -12 9
-20 -1 -40 -8 -13 -16 -21 -19 -17 -3 5 -15 13 -26 19 -10 6 -23 25 -27 42
-10 37 -14 38 -42 15 -11 -10 90 92 225 227 134 135 252 246 262 247 10 1 21
-5 24 -13z m84 -31 c-5 -10 -22 -29 -37 -43 -26 -23 -25 -22 5 18 34 43 49 55
32 25z m183 -185 c-1 -13 -3 -24 -3 -25 -1 -2 -1 -6 0 -9 0 -4 -3 -10 -9 -13
-5 -3 -14 -15 -20 -26 -19 -33 -14 0 8 49 21 51 28 57 24 24z m-377 -28 c10 8
-6 -12 -36 -43 -30 -31 -57 -55 -59 -52 -2 2 10 18 27 36 18 17 30 37 27 44
-6 18 6 28 15 13 6 -9 12 -8 26 2z m-1350 -263 c-2 -23 -3 -1 -3 48 0 50 1 68
3 42 2 -26 2 -67 0 -90z m110 91 c-3 -8 -6 -5 -6 6 -1 11 2 17 5 13 3 -3 4
-12 1 -19z m808 -77 c-4 -13 0 -23 11 -29 10 -6 19 -23 20 -40 3 -53 14 -72
40 -72 16 0 24 -5 23 -17 -1 -27 -37 -121 -38 -99 -1 10 -10 34 -22 52 -11 19
-18 34 -15 34 3 0 -3 9 -15 21 -11 11 -28 19 -37 18 -28 -2 -38 1 -25 9 8 5 6
14 -8 31 -19 24 -20 24 -43 5 -12 -10 7 9 43 43 36 35 67 63 69 63 2 0 1 -9
-3 -19z m666 -28 c-11 -21 -20 -35 -21 -31 0 12 33 78 38 74 2 -2 -6 -21 -17
-43z m19 -43 c-6 -11 -13 -20 -16 -20 -2 0 0 9 6 20 6 11 13 20 16 20 2 0 0
-9 -6 -20z m-789 -85 c5 4 14 3 20 -1 8 -5 8 -8 0 -13 -12 -8 7 -61 22 -61 4
0 7 -20 7 -44 0 -26 5 -46 12 -48 8 -3 1 -12 -15 -23 -23 -15 -34 -16 -63 -7
-32 10 -35 9 -49 -18 -13 -24 -13 -30 -1 -37 12 -8 36 -45 36 -57 0 -3 -9 -6
-19 -6 -11 0 -21 -5 -23 -11 -3 -8 -9 -6 -20 4 -8 9 -19 13 -23 9 -5 -4 -5 4
-2 18 l6 25 -19 -22 c-10 -13 -22 -23 -26 -23 -4 0 6 15 22 33 52 55 74 94 74
131 0 19 5 69 11 111 11 70 13 74 26 55 8 -11 19 -18 24 -15z m-681 -50 c0 -5
-5 -3 -10 5 -5 8 -10 20 -10 25 0 6 5 3 10 -5 5 -8 10 -19 10 -25z m-114 -15
c16 0 19 -16 4 -25 -6 -4 -7 -12 -4 -18 5 -9 4 -9 -5 -1 -6 6 -13 26 -15 45
-2 19 -1 26 1 17 2 -10 11 -18 19 -18z m920 -176 c-8 -21 -15 -34 -15 -28 -1
15 20 76 25 71 2 -2 -2 -21 -10 -43z m-331 -145 c-4 -6 3 -21 15 -34 25 -27
21 -35 -34 -66 -27 -15 -30 -15 -48 3 -20 20 -20 20 23 64 43 44 56 54 44 33z
m822 -71 c-3 -8 -6 -5 -6 6 -1 11 2 17 5 13 3 -3 4 -12 1 -19z m-901 -42 c-40
-24 -56 -45 -65 -82 -5 -22 -9 -30 -10 -17 -2 52 48 127 77 115 14 -5 14 -7
-2 -16z m315 -23 c-12 -20 -14 -14 -5 12 4 9 9 14 11 11 3 -2 0 -13 -6 -23z
m-51 -102 c-5 -11 -15 -23 -21 -27 -6 -3 -3 5 6 20 20 30 30 35 15 7z m667
-23 c-3 -8 -6 -5 -6 6 -1 11 2 17 5 13 3 -3 4 -12 1 -19z m-1010 -160 c-2 -24
-4 -5 -4 42 0 47 2 66 4 43 2 -24 2 -62 0 -85z m19 -230 c5 -10 4 -10 -6 -1
-7 6 -14 42 -16 80 l-3 68 9 -67 c4 -37 12 -73 16 -80z"/>
<path d="M7484 7902 c3 -6 0 -12 -6 -15 -7 -3 -3 -4 10 -4 23 1 25 18 2 25 -7
3 -10 0 -6 -6z"/>
<path d="M7256 7497 c-17 -12 -17 -15 5 -59 21 -45 23 -45 41 -28 18 17 18 20
4 46 -29 54 -30 55 -50 41z"/>
<path d="M7350 7340 c0 -5 -7 -10 -16 -10 -9 0 -14 -6 -11 -12 2 -7 13 -36 23
-65 17 -48 19 -51 35 -35 15 16 14 21 -4 75 -18 54 -27 70 -27 47z"/>
<path d="M7476 6305 c-3 -8 -1 -15 4 -15 6 0 10 7 10 15 0 8 -2 15 -4 15 -2 0
-6 -7 -10 -15z"/>
<path d="M7321 6179 c-14 -42 -7 -49 9 -9 7 17 10 33 8 36 -3 3 -11 -9 -17
-27z"/>
<path d="M7350 6180 c0 -6 7 -10 15 -10 8 0 15 2 15 4 0 2 -7 6 -15 10 -8 3
-15 1 -15 -4z"/>
<path d="M6555 6123 c2 -10 4 -22 4 -28 1 -5 5 -4 10 4 10 15 4 41 -9 41 -5 0
-7 -8 -5 -17z"/>
<path d="M6905 4850 c-3 -5 -1 -10 4 -10 6 0 11 5 11 10 0 6 -2 10 -4 10 -3 0
-8 -4 -11 -10z"/>
<path d="M5980 8094 c-19 -22 -190 -121 -242 -140 -78 -28 -178 -44 -271 -44
l-92 -1 -82 -99 c-72 -88 -84 -108 -98 -164 -20 -89 -73 -217 -123 -300 -23
-37 -42 -71 -42 -74 0 -10 50 40 227 231 97 103 184 192 194 198 10 5 70 21
131 34 206 46 298 114 379 282 40 81 47 111 19 77z m-847 -706 c-9 -10 -19
-15 -22 -12 -3 4 0 9 7 11 6 3 10 8 8 12 -3 4 1 8 9 8 13 0 12 -4 -2 -19z"/>
<path d="M6025 7934 c-66 -63 -151 -135 -188 -161 -67 -47 -68 -48 -144 -198
-141 -280 -273 -415 -405 -415 -26 0 -53 -3 -62 -6 -9 -3 -50 -54 -93 -113
-97 -135 -236 -301 -304 -366 -60 -57 -51 -42 44 76 37 46 109 145 159 219
139 207 135 203 230 235 105 35 131 48 195 97 73 56 132 151 184 298 l9 25
-18 -25 c-47 -69 -164 -189 -212 -217 -32 -19 -83 -39 -129 -48 -195 -40 -258
-103 -658 -656 -125 -171 -148 -207 -140 -216 10 -10 94 20 142 51 30 19 76
37 115 45 89 17 200 49 173 50 -12 1 -34 -4 -50 -10 -15 -5 -23 -6 -18 -1 14
12 451 260 550 312 86 45 82 45 225 20 122 -21 215 6 324 95 32 26 55 41 50
34 -7 -12 -5 -12 9 0 18 15 23 26 7 16 -16 -10 -12 -1 30 71 70 119 120 309
147 560 l17 159 13 -62 c23 -118 62 -399 74 -538 24 -283 -5 -614 -81 -920
-31 -129 -96 -338 -75 -245 16 71 17 90 6 90 -7 0 -9 -4 -6 -10 3 -5 0 -7 -9
-4 -10 4 -17 -2 -20 -18 -3 -12 -7 -36 -11 -51 -6 -31 18 -68 29 -44 15 32
-10 -47 -37 -118 -29 -76 -31 -79 -40 -52 -6 19 -14 26 -24 23 -16 -6 -83 21
-95 38 -4 6 -3 15 2 20 14 14 12 29 -3 23 -8 -3 -14 1 -14 8 0 8 7 11 16 7 10
-4 8 4 -8 26 -16 23 -30 32 -49 32 -27 0 -28 4 -51 99 -13 55 -20 105 -16 112
5 7 4 10 -3 5 -7 -4 -16 9 -23 34 -7 22 -14 38 -16 36 -2 -2 7 -42 20 -87 14
-46 29 -109 35 -139 6 -30 18 -93 26 -140 21 -113 22 -399 1 -524 -9 -50 -20
-122 -26 -161 -6 -38 -22 -104 -36 -145 -14 -41 -26 -88 -26 -105 0 -16 18
-73 41 -125 l42 -95 1 -250 c1 -138 5 -277 9 -310 l7 -60 2 73 c1 69 2 72 21
62 16 -9 20 -8 20 5 0 8 -4 15 -9 15 -5 0 -13 10 -17 23 l-8 22 -7 -25 c-4
-14 -7 26 -7 90 0 63 2 109 5 103 7 -20 19 -15 31 12 10 21 9 31 -6 53 l-17
26 -6 -39 c-3 -23 -7 18 -8 92 -1 105 2 135 14 147 18 17 20 42 4 52 -6 3 -9
14 -6 24 2 10 0 24 -5 31 -7 10 -8 9 -4 -5 6 -16 4 -17 -9 -6 -11 9 -15 9 -15
1 0 -7 -4 -10 -9 -7 -5 4 -11 0 -13 -6 -5 -15 -22 14 -31 53 -7 26 -5 27 44
20 3 -1 17 -10 30 -21 l23 -21 9 23 c5 13 6 41 3 62 -2 22 -1 35 3 28 9 -15
51 12 51 33 0 7 4 15 9 17 5 2 12 22 14 45 3 23 8 47 12 53 6 9 2 9 -14 1 -19
-11 -21 -9 -21 17 0 21 -5 28 -20 29 -25 2 -26 -13 -3 -26 10 -5 14 -13 10
-17 -4 -4 -16 1 -26 12 -10 10 -28 27 -39 36 -17 14 -20 26 -17 65 2 26 4 58
4 69 1 18 6 21 34 18 17 -2 37 -11 43 -19 6 -8 20 -15 30 -15 11 0 28 -9 37
-21 22 -25 36 -17 16 8 -9 11 -10 14 -1 9 7 -4 12 -1 12 9 0 9 5 13 10 10 6
-3 10 -2 10 4 0 5 -4 12 -9 15 -9 6 -22 68 -26 130 -2 21 -8 42 -14 45 -12 8
19 40 84 86 46 34 169 137 204 173 28 28 196 415 246 567 108 325 106 585 -7
914 -58 169 -146 341 -266 521 -58 88 -109 160 -112 160 -3 -1 -59 -53 -125
-116z m-544 -538 c-9 -11 -8 -15 4 -20 11 -4 14 -2 9 7 -4 6 -4 9 1 5 4 -4 15
-2 24 5 9 6 4 -4 -10 -22 -23 -31 -61 -59 -45 -33 9 15 -4 43 -18 36 -6 -3 0
4 13 15 26 24 39 28 22 7z m-321 -120 c0 -2 -12 -11 -27 -20 l-28 -17 24 20
c23 21 31 25 31 17z m-210 -209 c0 -2 -10 -12 -22 -23 l-23 -19 19 23 c18 21
26 27 26 19z m-89 -115 c-5 -10 -18 -25 -27 -33 -11 -9 -9 -2 6 19 26 35 36
42 21 14z m-175 -240 c-17 -16 -18 -16 -5 5 7 12 15 20 18 17 3 -2 -3 -12 -13
-22z m-68 -92 c-7 -10 -14 -17 -17 -15 -4 4 18 35 25 35 2 0 -1 -9 -8 -20z
m1315 -704 c20 -5 27 -12 27 -31 0 -14 5 -25 10 -25 6 0 10 -12 10 -27 0 -31
19 -71 20 -43 0 12 2 13 9 1 7 -11 11 -10 20 5 6 11 11 16 11 12 0 -9 -47
-134 -55 -148 -8 -13 -35 0 -35 16 0 8 -4 14 -10 14 -5 0 -10 8 -10 18 0 10
-3 13 -8 6 -4 -6 -15 -13 -24 -17 -17 -6 -18 4 -18 113 0 91 3 118 13 116 6
-3 24 -7 40 -10z"/>
<path d="M4818 8022 c-9 -9 -81 -81 -161 -160 -159 -156 -173 -179 -164 -266
7 -71 57 -199 71 -185 9 9 26 141 26 207 0 62 1 65 51 122 31 36 48 63 43 71
-4 7 -3 10 4 6 12 -8 61 56 116 152 37 65 43 84 14 53z m-188 -275 c0 -2 -10
-12 -22 -23 l-23 -19 19 23 c18 21 26 27 26 19z"/>
<path d="M6210 7723 c0 -11 -3 -34 -6 -51 -6 -27 -4 -31 16 -29 20 1 21 6 17
40 -6 44 -27 75 -27 40z"/>
<path d="M5464 7592 c-105 -52 -147 -87 -134 -113 12 -22 61 -49 89 -49 46 0
141 123 141 183 0 23 -5 22 -96 -21z"/>
<path d="M6210 7515 c-10 -12 -10 -15 3 -15 8 0 20 -7 27 -15 17 -20 28 -11
22 20 -4 25 -22 35 -22 13 0 -10 -2 -10 -9 0 -6 10 -10 10 -21 -3z"/>
<path d="M4626 7438 c-8 -24 -35 -104 -60 -178 -24 -74 -69 -196 -101 -270
-32 -74 -86 -205 -120 -290 -120 -297 -137 -335 -153 -355 -17 -20 -17 -20 6
-1 12 11 22 16 22 12 0 -4 14 2 30 14 17 12 30 20 30 18 0 -2 -27 -30 -61 -63
-48 -47 -60 -55 -54 -35 7 23 6 24 -9 11 -31 -26 -66 -108 -66 -153 0 -68 17
-113 78 -206 49 -76 56 -93 61 -151 l6 -66 110 -54 c129 -64 182 -72 235 -33
29 22 36 23 75 13 24 -6 71 -11 104 -11 48 0 65 5 85 23 28 23 46 93 46 171
l0 41 -25 -60 c-34 -81 -56 -108 -97 -119 -36 -9 -128 0 -128 12 0 26 269 342
291 342 5 0 20 -22 34 -49 13 -27 29 -52 34 -55 12 -8 63 83 54 97 -3 5 -2 7
4 4 6 -4 25 15 43 41 19 26 51 67 72 91 21 24 36 47 33 51 -2 4 4 15 15 25 10
9 17 22 14 29 -3 7 4 20 14 29 18 16 19 16 17 -3 -1 -11 -12 -31 -25 -45 -13
-14 -20 -25 -16 -25 11 0 111 91 111 100 0 5 4 12 9 17 5 5 6 2 1 -6 -5 -9 -3
-12 6 -9 8 3 14 10 14 16 0 5 4 14 9 19 5 5 6 3 2 -4 -10 -18 -9 -18 86 26 54
25 113 43 164 51 91 14 114 20 98 27 -7 2 -10 12 -7 22 5 21 -30 46 -67 46
-17 0 -25 -6 -27 -20 l-3 -20 9 20 c7 14 10 16 10 5 1 -18 -18 -40 -33 -40 -5
0 -7 3 -3 6 3 3 -7 17 -24 31 -16 14 -27 28 -25 32 3 4 -4 7 -15 7 -10 0 -19
-4 -19 -9 0 -4 -3 -6 -7 -4 -19 12 -4 -56 17 -78 l23 -24 -47 -20 c-25 -11
-54 -17 -63 -14 -10 4 -14 2 -10 -4 7 -12 -28 -31 -59 -31 -23 -1 -60 61 -48
80 5 7 -2 9 -19 5 -21 -6 -24 -4 -20 12 3 14 -3 21 -25 29 -40 14 -100 -12
-109 -46 -4 -18 -8 -21 -15 -10 -5 8 -7 -7 -6 -42 3 -46 6 -55 21 -52 24 4 22
-29 -3 -59 l-19 -24 -2 45 c-1 40 -3 37 -14 -32 -8 -43 -16 -85 -19 -95 -6
-18 -67 -63 -85 -63 -20 0 72 218 99 235 15 9 12 74 -5 132 -20 66 -61 103
-115 103 -35 0 -39 -3 -45 -32 -25 -115 -155 -442 -170 -426 -3 2 11 44 30 93
19 48 40 112 46 141 10 46 10 56 -5 79 -21 32 -40 31 -191 -9 -65 -18 -142
-30 -220 -35 -66 -4 -121 -6 -123 -5 -2 1 13 24 32 52 37 50 45 69 25 56 -8
-4 -8 0 0 15 14 25 23 28 14 4 -14 -35 16 0 86 101 40 58 69 111 66 116 -4 6
-1 9 6 8 6 -2 14 3 17 11 3 9 0 11 -8 6 -9 -5 -11 -4 -6 4 4 6 11 9 16 6 8 -5
170 214 170 229 0 4 -5 4 -11 0 -8 -5 -8 -1 0 14 6 12 17 24 24 28 8 5 7 2 -2
-9 -8 -10 -12 -20 -9 -23 3 -2 49 56 103 131 53 75 119 166 146 201 27 36 44
62 37 58 -23 -14 -182 -126 -216 -152 -18 -14 -30 -27 -28 -30 3 -3 13 1 23 9
11 9 14 10 9 2 -4 -7 -16 -18 -28 -24 -15 -8 -19 -8 -14 0 14 22 -8 10 -91
-49 -46 -33 -86 -60 -89 -60 -3 0 -2 15 2 33 16 75 62 332 59 335 -2 2 -10
-16 -19 -40z m224 -242 c0 -2 -8 -10 -17 -17 -16 -13 -17 -12 -4 4 13 16 21
21 21 13z m-548 -668 c-8 -8 -9 -4 -5 13 4 13 8 18 11 10 2 -7 -1 -18 -6 -23z
m998 -213 c-7 -8 -18 -15 -24 -15 -6 0 -2 7 8 15 25 19 32 19 16 0z m-860
-168 c0 -17 -21 -82 -46 -145 -42 -103 -45 -119 -42 -182 2 -39 0 -70 -4 -70
-14 0 -38 73 -48 138 -13 95 2 163 56 245 39 60 47 66 64 57 14 -7 20 -21 20
-43z m669 17 c-5 -15 -7 -29 -4 -32 3 -3 5 0 5 6 0 7 6 12 13 12 6 -1 2 -9
-10 -19 -13 -11 -23 -23 -23 -28 0 -5 -7 -18 -16 -29 -15 -19 -15 -19 -6 1 5
11 12 35 16 54 5 30 22 61 32 61 2 0 -1 -12 -7 -26z m-963 -119 c-3 -5 -5 -2
-5 8 -1 9 -8 17 -16 17 -20 0 -30 45 -13 63 11 13 15 8 25 -32 7 -25 11 -50 9
-56z m834 35 c11 -21 20 -50 19 -62 -1 -19 -2 -17 -8 7 -8 31 -29 75 -36 75
-2 0 -2 -7 2 -16 5 -14 3 -15 -15 -5 -15 8 -23 8 -28 -1 -5 -7 -3 -8 6 -3 9 5
11 4 6 -4 -4 -6 -11 -9 -15 -7 -10 7 -73 -58 -69 -71 2 -6 -18 -33 -44 -61
-27 -28 -48 -46 -48 -39 0 7 -17 -5 -36 -27 -29 -30 -33 -40 -23 -47 12 -8 6
-13 -12 -11 -4 1 -6 -6 -5 -15 0 -8 -7 -17 -17 -19 -16 -2 -28 -14 -74 -73
-16 -21 -17 -44 0 -35 6 4 3 -2 -7 -14 -19 -22 -53 -31 -41 -12 4 6 -13 11
-42 12 -26 1 -57 3 -68 4 -11 1 -25 2 -31 3 -19 2 -103 70 -115 94 -9 16 -4
13 17 -9 35 -37 75 -59 137 -74 85 -22 119 1 252 176 69 90 245 274 263 274 6
0 21 -18 32 -40z m-791 -120 c5 -17 6 -28 2 -25 -5 3 -14 19 -20 35 -5 17 -6
28 -2 25 5 -3 14 -19 20 -35z m584 -307 c-7 -2 -19 -2 -25 0 -7 3 -2 5 12 5
14 0 19 -2 13 -5z"/>
<path d="M4765 5923 l-18 -28 27 24 c28 26 31 31 17 31 -5 0 -17 -12 -26 -27z"/>
<path d="M6151 7374 c0 -11 3 -14 6 -6 3 7 2 16 -1 19 -3 4 -6 -2 -5 -13z"/>
<path d="M6106 7233 c-6 -15 8 -32 26 -33 8 0 -2 39 -12 45 -4 3 -11 -3 -14
-12z"/>
<path d="M6260 7160 c0 -5 5 -10 11 -10 5 0 7 5 4 10 -3 6 -8 10 -11 10 -2 0
-4 -4 -4 -10z"/>
<path d="M6261 7073 c-1 -58 5 -79 24 -87 12 -4 15 7 15 64 0 62 -2 70 -19 70
-15 0 -19 -8 -20 -47z"/>
<path d="M5978 7033 c-15 -16 -15 -19 0 -33 14 -13 15 -12 9 4 -5 14 -3 17 8
12 17 -6 19 2 7 22 -7 10 -12 8 -24 -5z"/>
<path d="M5430 6910 c-8 -5 -10 -10 -5 -10 6 0 17 5 25 10 8 5 11 10 5 10 -5
0 -17 -5 -25 -10z"/>
<path d="M5665 6905 c26 -9 105 -12 105 -4 0 5 -26 9 -57 8 -32 0 -53 -2 -48
-4z"/>
<path d="M5365 6878 c-35 -18 -37 -22 -20 -28 27 -10 40 -3 53 26 7 13 11 24
9 24 -1 -1 -20 -10 -42 -22z"/>
<path d="M5224 6794 c-18 -14 -18 -15 4 -4 12 6 22 13 22 15 0 8 -5 6 -26 -11z"/>
<path d="M5187 6728 c2 -5 14 -6 26 -3 17 5 19 4 7 -4 -8 -5 -11 -13 -7 -17 4
-4 2 -13 -4 -21 -9 -10 -8 -13 0 -13 8 0 11 -14 8 -39 -2 -22 0 -46 4 -53 6
-9 1 -15 -14 -20 -20 -5 -20 -6 -2 -7 11 0 27 4 35 9 13 9 13 12 -3 21 -13 8
-15 14 -7 30 6 10 7 19 3 19 -4 1 3 10 16 20 l23 20 -23 -2 c-25 -3 -26 -1
-15 45 6 25 4 27 -23 25 -16 -1 -27 -6 -24 -10z"/>
<path d="M6266 6723 c-4 -13 -12 -23 -17 -23 -11 0 -11 -47 0 -75 7 -16 11 -8
20 38 13 58 10 101 -3 60z"/>
<path d="M5023 6684 c-37 -22 -41 -29 -33 -45 14 -25 47 -24 60 2 11 20 24 69
18 69 -2 -1 -22 -12 -45 -26z"/>
<path d="M5435 6609 c-4 -6 -5 -12 -2 -15 2 -3 7 2 10 11 7 17 1 20 -8 4z"/>
<path d="M7711 6575 c0 -22 4 -47 9 -55 7 -11 9 -8 9 15 -1 17 -5 41 -9 55 -7
22 -8 20 -9 -15z"/>
<path d="M5574 6576 c-1 -14 7 -33 17 -42 18 -16 19 -16 19 9 0 19 -4 25 -14
21 -11 -4 -13 0 -9 15 3 12 1 21 -3 21 -5 0 -10 -11 -10 -24z"/>
<path d="M7731 6484 c0 -11 3 -14 6 -6 3 7 2 16 -1 19 -3 4 -6 -2 -5 -13z"/>
<path d="M5741 6440 c0 -8 6 -28 14 -45 17 -39 18 -21 0 25 -7 19 -14 28 -14
20z"/>
<path d="M6197 6360 c-3 -11 -1 -23 4 -26 5 -3 9 -1 9 5 0 5 3 16 6 25 3 9 2
16 -4 16 -5 0 -12 -9 -15 -20z"/>
<path d="M6015 5930 c-3 -5 -1 -10 4 -10 6 0 11 5 11 10 0 6 -2 10 -4 10 -3 0
-8 -4 -11 -10z"/>
<path d="M6147 5748 c-29 -26 -36 -38 -31 -55 6 -23 34 -33 34 -13 0 6 5 10
10 10 6 0 9 -5 8 -12 -2 -6 10 -13 27 -14 25 -2 27 -1 12 7 -17 10 -17 12 2
28 20 18 31 68 12 57 -5 -3 -11 1 -15 9 -8 22 -18 19 -59 -17z"/>
<path d="M6699 5658 c-1 -7 -1 -19 0 -26 1 -7 -5 -12 -15 -10 -12 2 -17 -5
-18 -26 l-2 -28 34 37 c18 20 32 41 30 47 -6 17 -28 22 -29 6z"/>
<path d="M6046 5382 c-3 -5 1 -9 9 -9 8 0 12 4 9 9 -3 4 -7 8 -9 8 -2 0 -6 -4
-9 -8z"/>
<path d="M5860 5349 c0 -4 7 -9 15 -13 9 -3 15 0 15 8 0 7 -7 13 -15 13 -8 0
-15 -4 -15 -8z"/>
<path d="M6042 5344 c1 -9 9 -19 16 -22 9 -3 13 2 10 14 -1 9 -9 19 -16 22 -9
3 -13 -2 -10 -14z"/>
<path d="M6280 5240 c0 -5 5 -10 10 -10 6 0 10 -8 11 -17 0 -15 2 -15 8 2 5
11 7 23 4 28 -6 11 -33 9 -33 -3z"/>
<path d="M5985 5230 c-3 -5 1 -10 9 -10 9 0 16 5 16 10 0 6 -4 10 -9 10 -6 0
-13 -4 -16 -10z"/>
<path d="M7319 4938 c-19 -29 -67 -120 -108 -203 -82 -168 -84 -171 -156 -310
-168 -324 -209 -393 -325 -540 -127 -162 -150 -196 -235 -350 -43 -77 -124
-200 -179 -274 -117 -156 -137 -189 -69 -111 217 246 345 395 439 510 144 178
264 386 436 760 76 165 239 562 234 568 -2 1 -18 -21 -37 -50z"/>
<path d="M5949 4963 c-13 -16 -12 -17 4 -4 9 7 17 15 17 17 0 8 -8 3 -21 -13z"/>
<path d="M6013 4933 c-7 -3 -13 -9 -13 -15 0 -6 6 -8 13 -5 7 3 13 -3 14 -14
1 -10 9 -34 18 -53 9 -19 14 -40 10 -45 -3 -6 -2 -11 3 -11 11 0 22 68 14 87
-2 7 -8 10 -13 7 -5 -3 -9 6 -9 19 0 25 -15 37 -37 30z"/>
<path d="M6001 4557 c-7 -9 -8 -23 -3 -38 8 -21 9 -21 15 11 8 38 5 46 -12 27z"/>
<path d="M5906 4163 c-12 -13 -6 -35 8 -30 10 4 13 1 9 -9 -3 -7 0 -14 6 -14
16 0 13 47 -3 53 -8 3 -17 3 -20 0z"/>
<path d="M5921 4004 c0 -11 3 -14 6 -6 3 7 2 16 -1 19 -3 4 -6 -2 -5 -13z"/>
<path d="M2363 9288 c-135 -182 -264 -373 -255 -376 6 -2 33 -21 60 -42 27
-22 52 -37 55 -33 3 3 -3 23 -13 44 -11 21 -20 49 -20 62 0 21 50 110 69 121
3 2 87 -54 186 -125 260 -187 247 -175 243 -215 -1 -18 1 -34 6 -34 4 -1 34
37 67 84 33 47 56 86 50 86 -5 0 -22 -8 -38 -17 l-29 -16 -205 148 c-112 81
-208 151 -212 155 -14 12 0 43 38 84 34 37 37 38 90 34 61 -5 68 1 28 27 -16
10 -40 29 -54 42 l-27 25 -39 -54z"/>
<path d="M9983 9216 c-101 -33 -196 -115 -234 -201 -49 -110 -13 -241 94 -342
57 -54 102 -73 175 -73 61 0 50 21 -19 35 -71 15 -110 36 -148 82 -105 127
-39 301 151 397 130 65 221 57 292 -26 57 -66 64 -145 19 -231 -21 -42 -5 -53
31 -20 17 16 48 42 70 57 l38 29 -25 21 c-14 11 -40 50 -57 86 -62 126 -152
191 -275 196 -42 2 -87 -2 -112 -10z"/>
<path d="M1994 8749 c-25 -50 -43 -94 -40 -97 3 -3 18 7 32 21 15 15 32 27 39
27 23 0 359 -199 344 -204 -8 -2 -99 -18 -204 -36 -104 -18 -227 -39 -273 -47
l-83 -15 -32 -64 c-17 -35 -28 -66 -25 -69 3 -3 23 5 43 20 21 14 45 25 53 25
18 0 409 -205 435 -229 15 -12 18 -25 14 -54 -3 -21 -1 -37 4 -35 11 4 97 177
91 183 -3 2 -16 -5 -30 -15 -13 -11 -35 -20 -48 -20 -29 0 -387 181 -377 191
14 12 509 99 564 99 14 0 32 7 39 15 15 18 16 17 -38 44 -67 34 -405 232 -424
249 -12 10 -18 30 -18 59 0 23 -4 43 -10 43 -5 0 -30 -41 -56 -91z"/>
<path d="M10545 8700 c-8 -38 -38 -55 -302 -181 -190 -90 -193 -91 -219 -75
-14 10 -29 16 -34 14 -4 -2 41 -95 101 -208 60 -113 110 -208 111 -212 2 -4
25 3 52 17 27 14 58 25 68 25 10 0 18 5 18 10 0 6 -12 10 -27 10 -16 0 -46 9
-68 19 -34 15 -47 31 -87 108 -27 50 -48 99 -48 110 0 16 44 42 223 132 122
61 231 111 243 111 11 0 31 -11 44 -25 13 -14 26 -23 28 -20 7 6 -80 194 -90
195 -3 0 -9 -14 -13 -30z"/>
<path d="M10817 8193 c-4 -3 -7 -19 -7 -34 0 -30 -3 -32 -265 -125 -159 -56
-188 -73 -221 -130 -24 -40 -26 -53 -22 -115 7 -91 46 -169 106 -212 34 -25
55 -32 106 -35 57 -4 81 2 256 62 202 69 202 69 237 27 7 -8 15 -12 18 -10 5
6 -43 159 -55 172 -4 5 -12 -11 -18 -35 l-11 -43 -192 -64 c-165 -54 -199 -63
-246 -59 -66 6 -100 29 -130 88 -51 99 -22 170 89 223 86 40 347 137 371 137
9 0 22 -9 29 -20 16 -25 43 -27 33 -2 -4 9 -20 54 -37 100 -16 45 -31 82 -32
82 -2 0 -6 -3 -9 -7z"/>
<path d="M1674 8094 c-4 -11 -16 -41 -26 -69 -43 -109 -118 -338 -113 -343 3
-3 16 5 29 18 l25 22 248 -92 c136 -50 251 -97 255 -103 4 -7 8 -22 8 -34 0
-13 4 -23 9 -23 10 0 31 53 76 190 15 47 41 118 57 159 16 40 27 75 26 76 -2
1 -31 21 -65 43 -67 45 -91 41 -50 -8 50 -59 52 -87 15 -197 -27 -80 -37 -99
-54 -101 -21 -3 -210 62 -227 78 -11 10 41 141 65 163 11 9 31 17 44 17 43 0
25 17 -51 49 -86 36 -85 36 -85 16 0 -8 3 -15 8 -15 4 0 13 -9 20 -21 11 -18
9 -32 -14 -102 -15 -45 -28 -85 -30 -88 -4 -7 -214 67 -226 79 -7 8 52 170 76
207 12 18 28 26 66 31 28 4 50 10 50 13 0 4 -24 15 -52 26 -29 10 -59 20 -65
23 -7 2 -16 -4 -19 -14z"/>
<path d="M1486 7506 c4 -17 -4 -45 -27 -91 -45 -91 -52 -196 -19 -273 47 -108
167 -182 312 -190 140 -8 234 45 290 163 51 109 33 263 -38 310 -40 26 -45 8
-13 -44 53 -84 58 -153 18 -233 -24 -47 -60 -74 -122 -93 -63 -19 -93 -19
-181 0 -88 19 -150 49 -197 96 -102 102 -56 279 84 318 26 8 47 17 47 21 0 4
-28 13 -62 19 -35 7 -71 14 -81 17 -15 5 -17 1 -11 -20z"/>
<path d="M11050 7441 c-14 -34 4 -28 -349 -102 l-204 -43 -23 27 c-13 15 -26
27 -29 27 -15 0 50 -309 76 -364 27 -56 39 -70 79 -95 65 -39 168 -21 206 37
10 15 25 50 34 79 l16 52 18 -29 c9 -17 36 -40 58 -51 101 -52 207 25 208 151
0 36 -64 340 -71 340 -4 0 -12 -13 -19 -29z m25 -173 c32 -107 13 -174 -55
-202 -62 -25 -88 -21 -130 22 -27 27 -40 51 -49 90 -13 61 -14 102 -3 102 4 0
48 9 97 19 127 28 122 29 140 -31z m-277 -68 c25 -100 -6 -187 -81 -224 -96
-47 -196 38 -200 172 l-2 56 45 13 c75 22 174 42 199 40 21 -2 27 -10 39 -57z"/>
<path d="M10486 5268 c-21 -29 -20 -51 2 -71 26 -23 58 -21 76 5 21 29 20 51
-2 71 -26 23 -58 21 -76 -5z"/>
<path d="M1715 5261 c-57 -35 -113 -106 -131 -167 -22 -75 -14 -126 36 -234
22 -48 40 -95 40 -106 0 -10 14 -48 31 -84 17 -36 51 -116 75 -179 45 -119 83
-180 69 -111 -4 19 -26 76 -47 125 -22 50 -48 113 -58 140 -9 28 -34 86 -55
130 -71 153 -80 206 -46 281 33 73 142 144 220 144 38 -1 107 -35 125 -62 26
-40 45 -132 36 -174 l-9 -39 20 24 c26 31 24 83 -5 154 -32 77 -71 132 -111
157 -44 27 -147 28 -190 1z"/>
<path d="M10697 5254 c-4 -4 -7 -13 -7 -21 0 -7 -9 -33 -21 -58 -11 -24 -19
-52 -17 -62 2 -10 49 -44 115 -83 119 -69 157 -99 179 -142 18 -35 18 -140 -1
-200 -17 -59 -254 -534 -329 -660 -30 -51 -84 -136 -120 -188 -36 -52 -74
-113 -85 -136 -24 -51 -69 -74 -101 -51 -11 8 -110 100 -219 206 -162 155
-202 199 -214 234 l-14 42 -31 -49 c-37 -57 -40 -84 -13 -117 10 -13 122 -124
249 -247 l231 -223 63 92 c142 208 195 292 284 445 108 189 240 448 315 624
50 117 54 130 53 205 0 124 -46 191 -170 253 -80 40 -122 77 -132 114 -4 16
-11 26 -15 22z"/>
<path d="M2135 4696 c-67 -30 -125 -130 -164 -282 -11 -45 -28 -85 -39 -94
-10 -8 -23 -24 -29 -35 -11 -19 -12 -18 -24 8 -7 15 -16 27 -22 27 -14 0 -1
-43 40 -132 42 -92 39 -93 88 50 121 352 138 381 220 382 70 0 114 -50 116
-132 1 -36 2 -39 9 -18 15 46 10 95 -14 146 -38 82 -108 113 -181 80z"/>
<path d="M1520 4599 c-15 -27 -5 -66 21 -79 45 -25 94 51 57 88 -20 20 -66 15
-78 -9z"/>
<path d="M1582 4478 c-17 -17 -15 -59 4 -86 22 -32 64 -26 83 12 12 25 11 31
-6 55 -22 29 -61 39 -81 19z"/>
<path d="M2284 4358 c-4 -13 -23 -38 -43 -56 -27 -26 -31 -33 -16 -30 20 3 83
94 72 104 -3 3 -8 -5 -13 -18z"/>
<path d="M2517 4342 c-18 -19 -22 -49 -9 -68 14 -21 53 -23 73 -3 23 23 24 38
3 67 -18 27 -45 28 -67 4z"/>
<path d="M2296 4182 c-32 -26 -78 -60 -101 -77 -24 -16 -72 -52 -107 -79 -77
-60 -147 -94 -210 -102 -27 -4 -48 -10 -48 -14 0 -9 41 -45 67 -59 33 -17 100
-13 141 8 38 19 38 19 50 0 19 -30 32 -22 32 19 0 35 6 41 127 137 147 117
167 129 199 121 l25 -7 -22 43 c-12 24 -27 46 -33 50 -27 18 -64 6 -120 -40z"/>
<path d="M2563 3884 c-6 -17 -12 -8 156 -243 l146 -205 3 -66 c6 -94 -31 -160
-143 -256 -64 -54 -85 -53 -116 9 -19 37 -148 221 -305 433 -28 38 -74 112
-100 164 l-49 93 -3 -43 c-3 -38 3 -52 39 -104 23 -34 60 -88 82 -121 22 -33
73 -103 113 -155 39 -53 89 -123 110 -155 21 -33 59 -82 84 -110 26 -27 61
-76 79 -107 18 -32 38 -58 44 -58 7 0 55 45 109 100 109 113 128 152 128 259
0 101 -18 133 -222 407 -37 50 -68 95 -68 101 0 11 127 -2 177 -18 42 -13 72
-51 79 -101 4 -21 11 -38 17 -38 14 0 2 127 -14 147 -24 28 -116 63 -172 64
-29 0 -78 4 -111 8 -43 5 -59 4 -63 -5z"/>
<path d="M9845 3671 c-56 -25 -152 -131 -166 -183 -13 -50 0 -105 31 -133 25
-23 33 -15 20 19 -35 93 29 207 124 223 66 10 150 -56 203 -160 38 -77 31
-140 -30 -244 -26 -44 -47 -85 -47 -92 0 -24 140 164 155 208 47 138 -13 293
-137 355 -61 31 -98 32 -153 7z"/>
<path d="M9495 3375 c-5 -2 -22 -6 -37 -9 -37 -8 -98 -63 -114 -103 -33 -79
-4 -181 66 -232 40 -29 126 -54 286 -82 38 -7 71 -14 73 -16 2 -1 -8 -12 -22
-24 -15 -11 -27 -27 -27 -35 0 -23 -379 -382 -434 -411 -19 -10 -44 -14 -74
-10 -104 12 -220 197 -190 304 12 45 73 109 113 119 21 5 40 1 67 -14 43 -23
48 -17 17 22 -37 47 -54 50 -108 20 -55 -29 -126 -95 -146 -134 -7 -14 -18
-48 -25 -77 -10 -44 -9 -61 5 -109 32 -111 115 -197 201 -210 76 -11 130 24
352 233 246 232 392 375 392 386 0 11 -45 26 -109 37 -254 41 -330 71 -365
143 -26 56 -21 94 18 133 28 28 41 34 78 34 44 0 134 -36 154 -61 6 -8 16 -27
22 -44 10 -28 10 -27 11 23 1 61 -17 86 -76 100 -48 12 -115 21 -128 17z"/>
<path d="M3029 3118 c-41 -46 -108 -123 -148 -171 -93 -111 -142 -153 -187
-160 -37 -6 -64 -23 -64 -39 0 -14 65 -38 105 -38 40 0 68 12 102 42 29 27 51
14 107 -66 51 -71 107 -114 158 -123 34 -5 36 -7 41 -56 21 -177 236 -347 359
-283 26 14 26 14 47 -44 50 -136 220 -215 324 -151 48 30 56 41 182 281 59
113 114 213 123 223 11 12 24 16 39 12 37 -9 26 8 -28 43 -85 56 -70 72 -245
-268 -47 -91 -93 -174 -102 -186 -49 -59 -125 -73 -188 -34 -77 48 -82 118
-15 252 57 114 65 200 29 280 -63 138 -196 224 -303 197 -52 -13 -128 -76
-176 -146 -59 -85 -113 -81 -205 16 -100 104 -99 95 -9 198 42 48 102 117 132
151 53 61 57 63 91 57 l36 -7 -39 44 c-70 79 -75 78 -166 -24z m521 -386 c76
-76 75 -178 -3 -326 -48 -89 -84 -115 -165 -119 -87 -4 -142 64 -142 176 0
158 113 307 234 307 31 0 45 -7 76 -38z"/>
<path d="M9681 2614 c-25 -32 -26 -43 -5 -72 19 -27 48 -28 74 -2 25 25 26 62
2 83 -26 24 -47 21 -71 -9z"/>
<path d="M8328 2535 c-80 -42 -81 -41 20 -258 48 -106 108 -240 132 -299 l43
-107 50 25 c28 14 47 30 44 37 -3 7 -60 134 -126 283 -67 149 -121 282 -121
296 0 13 5 29 12 36 19 19 -3 13 -54 -13z"/>
<path d="M9575 2505 c-30 -29 -31 -49 -5 -75 26 -26 36 -25 65 5 30 29 31 49
5 75 -26 26 -36 25 -65 -5z"/>
<path d="M4259 2443 c-24 -73 -84 -208 -198 -447 -39 -81 -71 -152 -71 -156 0
-9 87 -56 93 -50 5 7 179 381 239 517 42 95 54 113 73 113 43 0 34 14 -32 52
-38 20 -71 38 -75 38 -3 0 -16 -30 -29 -67z"/>
<path d="M8140 2453 c-19 -8 -43 -22 -52 -30 -31 -28 -31 -27 76 -303 87 -224
89 -235 56 -300 -22 -44 -107 -100 -150 -100 -51 0 -68 11 -78 48 -6 21 -29
100 -52 177 -31 107 -38 144 -30 158 13 22 6 22 -66 -7 -33 -12 -78 -26 -99
-30 -156 -30 -250 -103 -276 -215 -20 -84 55 -212 132 -228 16 -3 29 -8 29
-12 0 -11 -141 -55 -168 -53 -14 1 -54 -8 -89 -19 -100 -34 -104 -31 -136 142
-39 206 -41 224 -28 248 11 19 9 21 -14 21 -25 0 -115 -37 -115 -48 0 -3 9
-40 19 -81 70 -275 86 -445 49 -518 -20 -40 -6 -44 42 -10 54 36 73 70 78 136
4 56 6 61 35 70 16 6 52 11 79 11 28 0 80 9 116 19 37 11 149 42 248 70 269
75 464 139 506 167 51 32 82 94 82 164 1 45 -11 84 -65 220 -99 245 -102 256
-85 291 17 33 10 35 -44 12z m-330 -459 c11 -25 20 -52 20 -60 0 -8 14 -61 31
-119 17 -57 29 -112 27 -122 -4 -22 -65 -41 -132 -42 -95 -2 -169 70 -183 178
-14 103 80 210 185 211 29 0 35 -5 52 -46z"/>
<path d="M4877 2282 c-21 -23 -22 -46 -1 -66 38 -38 106 2 82 48 -21 40 -55
47 -81 18z"/>
<path d="M5002 2248 c-31 -31 1 -88 49 -88 32 0 49 17 49 50 0 34 -17 50 -55
50 -17 0 -36 -5 -43 -12z"/>
<path d="M7588 2233 c-28 -33 -30 -44 -12 -64 33 -37 94 -14 94 35 0 44 -52
63 -82 29z"/>
<path d="M4797 2076 c-53 -15 -91 -39 -119 -77 -24 -32 -43 -125 -34 -171 9
-49 61 -116 116 -150 63 -38 487 -152 658 -176 43 -6 41 10 -4 31 -23 12 -34
23 -30 32 3 8 17 85 31 172 31 192 31 190 58 199 20 7 18 9 -18 20 -52 16
-102 17 -111 2 -4 -6 -10 -41 -14 -77 -8 -67 -33 -205 -51 -275 l-10 -39 -56
7 c-52 6 -143 38 -143 50 0 7 66 277 80 328 8 28 18 40 36 44 14 4 23 8 20 11
-11 11 -295 83 -326 82 -19 0 -57 -6 -83 -13z m187 -46 c63 -14 68 -24 51
-105 -18 -84 -51 -209 -67 -248 -11 -27 -13 -28 -57 -22 -135 20 -210 130
-171 251 36 111 119 154 244 124z"/>
<path d="M6910 1899 c-30 -5 -98 -12 -150 -17 -109 -11 -161 -29 -209 -75 -72
-69 -89 -157 -46 -244 41 -82 121 -124 234 -122 l66 1 -50 13 c-27 6 -64 19
-82 28 -103 54 -125 237 -39 323 35 35 88 54 153 54 65 0 73 -26 76 -238 1
-94 5 -172 10 -172 15 0 6 -112 -13 -167 -11 -31 -17 -59 -14 -62 12 -12 96
44 117 78 28 46 29 124 3 385 -17 174 -17 191 -2 201 17 13 22 26 9 24 -5 -1
-33 -6 -63 -10z"/>
<path d="M5719 1853 c-5 -15 -8 -43 -4 -63 6 -37 -16 -228 -29 -248 -16 -26
-69 -44 -115 -39 -25 2 -55 1 -66 -3 -18 -7 -17 -9 10 -20 17 -7 56 -15 87
-18 49 -4 64 -1 103 23 l47 27 20 -22 c28 -30 61 -40 129 -41 50 -1 65 3 96
27 l36 27 19 -27 c30 -40 69 -56 141 -56 78 0 120 24 156 90 22 38 25 61 30
178 5 112 9 136 24 146 28 22 20 26 -48 26 -77 0 -72 13 -79 -183 -8 -202 -41
-262 -127 -227 -58 24 -62 42 -54 221 6 141 10 162 26 172 11 7 19 15 19 19 0
11 -112 9 -130 -2 -12 -7 -16 -42 -20 -174 l-5 -165 -29 -30 c-47 -49 -111
-40 -142 21 -15 28 -15 47 -4 177 10 119 16 149 31 162 18 16 17 17 -13 23
-17 3 -46 6 -64 6 -28 0 -36 -5 -45 -27z"/>
<path d="M5192 1408 c-27 -27 -3 -88 34 -88 48 0 71 51 38 84 -18 19 -55 21
-72 4z"/>
<path d="M5343 1390 c-33 -14 -39 -47 -12 -76 26 -28 46 -30 77 -8 27 19 28
48 2 74 -22 22 -33 23 -67 10z"/>
<path d="M517 6350 c-10 -17 -27 -36 -37 -42 -15 -10 -17 -21 -13 -72 3 -34 7
-62 8 -64 2 -2 16 3 32 12 27 14 32 13 62 -5 17 -10 34 -19 37 -19 2 0 2 22
-2 49 -6 45 -4 50 20 66 34 23 33 35 -4 35 -29 0 -54 18 -75 54 -9 15 -12 14
-28 -14z"/>
<path d="M11997 6340 c-10 -16 -26 -30 -36 -30 -28 0 -32 -11 -15 -37 11 -18
13 -36 8 -68 -3 -25 -4 -45 0 -45 3 0 20 9 38 20 32 19 32 19 66 -2 18 -11 35
-19 37 -17 2 2 0 23 -4 46 -7 37 -5 45 16 64 25 25 17 39 -24 39 -15 0 -28 10
-38 30 -9 17 -19 30 -23 30 -4 0 -16 -13 -25 -30z"/>
</g>
</svg>
